<?xml version="1.0" standalone="no"?>
<!DOCTYPE svg PUBLIC "-//W3C//DTD SVG 1.1//EN" "http://www.w3.org/Graphics/SVG/1.1/DTD/svg11.dtd">
<svg xmlns:xlink="http://www.w3.org/1999/xlink" width="19.484ex" height="6.176ex" style="vertical-align: -2.505ex;" viewBox="0 -1580.7 8389 2659.1" xmlns="http://www.w3.org/2000/svg">
<defs>
<path stroke-width="10" id="E1-MJMAIN-230A" d="M174 734Q174 735 175 737T177 740T180 744T184 747T189 749T196 750Q206 748 214 735V-210H310H373Q401 -210 411 -213T422 -230T411 -247T369 -251Q362 -251 338 -251T298 -250H190Q178 -246 174 -234V734Z"></path>
<path stroke-width="10" id="E1-MJMATHI-4E" d="M234 637Q231 637 226 637Q201 637 196 638T191 649Q191 676 202 682Q204 683 299 683Q376 683 387 683T401 677Q612 181 616 168L670 381Q723 592 723 606Q723 633 659 637Q635 637 635 648Q635 650 637 660Q641 676 643 679T653 683Q656 683 684 682T767 680Q817 680 843 681T873 682Q888 682 888 672Q888 650 880 642Q878 637 858 637Q787 633 769 597L620 7Q618 0 599 0Q585 0 582 2Q579 5 453 305L326 604L261 344Q196 88 196 79Q201 46 268 46H278Q284 41 284 38T282 19Q278 6 272 0H259Q228 2 151 2Q123 2 100 2T63 2T46 1Q31 1 31 10Q31 14 34 26T39 40Q41 46 62 46Q130 49 150 85Q154 91 221 362L289 634Q287 635 234 637Z"></path>
<path stroke-width="10" id="E1-MJMAIN-32" d="M109 429Q82 429 66 447T50 491Q50 562 103 614T235 666Q326 666 387 610T449 465Q449 422 429 383T381 315T301 241Q265 210 201 149L142 93L218 92Q375 92 385 97Q392 99 409 186V189H449V186Q448 183 436 95T421 3V0H50V19V31Q50 38 56 46T86 81Q115 113 136 137Q145 147 170 174T204 211T233 244T261 278T284 308T305 340T320 369T333 401T340 431T343 464Q343 527 309 573T212 619Q179 619 154 602T119 569T109 550Q109 549 114 549Q132 549 151 535T170 489Q170 464 154 447T109 429Z"></path>
<path stroke-width="10" id="E1-MJMAIN-230B" d="M229 734Q229 735 230 737T232 740T235 744T239 747T244 749T251 750Q262 748 269 735V-235Q266 -240 256 -249L147 -250H77Q43 -250 32 -247T21 -230T32 -213T72 -209Q79 -209 99 -209T133 -210H229V734Z"></path>
<path stroke-width="10" id="E1-MJSZ3-230A" d="M246 -949V1450H308V-887H571V-949H246Z"></path>
<path stroke-width="10" id="E1-MJSZ3-230B" d="M274 -887V1450H336V-949H11V-887H274Z"></path>
<path stroke-width="10" id="E1-MJMAIN-2C" d="M78 35T78 60T94 103T137 121Q165 121 187 96T210 8Q210 -27 201 -60T180 -117T154 -158T130 -185T117 -194Q113 -194 104 -185T95 -172Q95 -168 106 -156T131 -126T157 -76T173 -3V9L172 8Q170 7 167 6T161 3T152 1T140 0Q113 0 96 17Z"></path>
<path stroke-width="10" id="E1-MJMAIN-34" d="M462 0Q444 3 333 3Q217 3 199 0H190V46H221Q241 46 248 46T265 48T279 53T286 61Q287 63 287 115V165H28V211L179 442Q332 674 334 675Q336 677 355 677H373L379 671V211H471V165H379V114Q379 73 379 66T385 54Q393 47 442 46H471V0H462ZM293 211V545L74 212L183 211H293Z"></path>
<path stroke-width="10" id="E1-MJMAIN-2026" d="M78 60Q78 84 95 102T138 120Q162 120 180 104T199 61Q199 36 182 18T139 0T96 17T78 60ZM525 60Q525 84 542 102T585 120Q609 120 627 104T646 61Q646 36 629 18T586 0T543 17T525 60ZM972 60Q972 84 989 102T1032 120Q1056 120 1074 104T1093 61Q1093 36 1076 18T1033 0T990 17T972 60Z"></path>
<path stroke-width="10" id="E1-MJMAIN-31" d="M213 578L200 573Q186 568 160 563T102 556H83V602H102Q149 604 189 617T245 641T273 663Q275 666 285 666Q294 666 302 660V361L303 61Q310 54 315 52T339 48T401 46H427V0H416Q395 3 257 3Q121 3 100 0H88V46H114Q136 46 152 46T177 47T193 50T201 52T207 57T213 61V578Z"></path>
</defs>
<g stroke="currentColor" fill="currentColor" stroke-width="0" transform="matrix(1 0 0 -1 0 0)">
 <use xlink:href="#E1-MJSZ3-230A"></use>
<g transform="translate(588,0)">
<g transform="translate(120,0)">
<rect stroke="none" width="1013" height="60" x="0" y="220"></rect>
 <use xlink:href="#E1-MJMATHI-4E" x="60" y="676"></use>
 <use xlink:href="#E1-MJMAIN-32" x="254" y="-696"></use>
</g>
</g>
 <use xlink:href="#E1-MJSZ3-230B" x="1841" y="-1"></use>
 <use xlink:href="#E1-MJMAIN-2C" x="2595" y="0"></use>
<g transform="translate(3045,0)">
 <use xlink:href="#E1-MJSZ3-230A"></use>
<g transform="translate(588,0)">
<g transform="translate(120,0)">
<rect stroke="none" width="1013" height="60" x="0" y="220"></rect>
 <use xlink:href="#E1-MJMATHI-4E" x="60" y="676"></use>
 <use xlink:href="#E1-MJMAIN-34" x="254" y="-707"></use>
</g>
</g>
 <use xlink:href="#E1-MJSZ3-230B" x="1841" y="-1"></use>
</g>
 <use xlink:href="#E1-MJMAIN-2C" x="5641" y="0"></use>
 <use xlink:href="#E1-MJMAIN-2026" x="6090" y="0"></use>
 <use xlink:href="#E1-MJMAIN-2C" x="7434" y="0"></use>
 <use xlink:href="#E1-MJMAIN-31" x="7884" y="0"></use>
</g>
</svg>